HIERARCHY
ROOT Junyuan_V1:Solving:Hips
{
	OFFSET 0.000000 0.000000 0.000000
	CHANNELS 6 Xposition Yposition Zposition Xrotation Yrotation Zrotation
	JOINT Junyuan_V1:Solving:Spine
	{
		OFFSET 0.000000 -11.180205 2.228564
		CHANNELS 6 Xposition Yposition Zposition Xrotation Yrotation Zrotation
		JOINT Junyuan_V1:Solving:Spine1
		{
			OFFSET 0.000000 -8.682996 1.531049
			CHANNELS 6 Xposition Yposition Zposition Xrotation Yrotation Zrotation
			JOINT Junyuan_V1:Solving:Spine2
			{
				OFFSET 0.000000 -8.783394 0.768450
				CHANNELS 6 Xposition Yposition Zposition Xrotation Yrotation Zrotation
				JOINT Junyuan_V1:Solving:Spine3
				{
					OFFSET 0.000000 -8.816944 0.000000
					CHANNELS 6 Xposition Yposition Zposition Xrotation Yrotation Zrotation
					JOINT Junyuan_V1:Solving:Neck
					{
						OFFSET 0.000000 -11.336071 -1.133605
						CHANNELS 6 Xposition Yposition Zposition Xrotation Yrotation Zrotation
						JOINT Junyuan_V1:Solving:Neck1
						{
							OFFSET 0.000000 -7.643246 -0.668695
							CHANNELS 6 Xposition Yposition Zposition Xrotation Yrotation Zrotation
							JOINT Junyuan_V1:Solving:Head
							{
								OFFSET 0.000000 -7.555870 -1.332303
								CHANNELS 6 Xposition Yposition Zposition Xrotation Yrotation Zrotation
								JOINT Junyuan_V1:Solving:HeadEnd
								{
									OFFSET 0.000000 -9.728081 0.000002
									CHANNELS 6 Xposition Yposition Zposition Xrotation Yrotation Zrotation
									End Site
									{
										OFFSET 0.000000 -9.728081 0.000002
									}
								}
							}
						}
					}
					JOINT Junyuan_V1:Solving:RightShoulder
					{
						OFFSET 0.000000 -8.097195 -5.270916
						CHANNELS 6 Xposition Yposition Zposition Xrotation Yrotation Zrotation
						JOINT Junyuan_V1:Solving:RightArm
						{
							OFFSET -20.762394 -0.000008 0.000000
							CHANNELS 6 Xposition Yposition Zposition Xrotation Yrotation Zrotation
							JOINT Junyuan_V1:Solving:RightForeArm
							{
								OFFSET -29.048946 -0.000008 0.000000
								CHANNELS 6 Xposition Yposition Zposition Xrotation Yrotation Zrotation
								JOINT Junyuan_V1:Solving:RightHand
								{
									OFFSET -22.031235 -0.000008 0.000000
									CHANNELS 6 Xposition Yposition Zposition Xrotation Yrotation Zrotation
									JOINT Junyuan_V1:Solving:RightHandThumb1
									{
										OFFSET -3.579254 2.890213 -2.661497
										CHANNELS 6 Xposition Yposition Zposition Xrotation Yrotation Zrotation
										End Site
										{
											OFFSET -5.229485 0.000000 -5.277840
										}
									}
									JOINT Junyuan_V1:Solving:RightHandMiddle1
									{
										OFFSET -9.544678 -0.000004 0.061184
										CHANNELS 6 Xposition Yposition Zposition Xrotation Yrotation Zrotation
										End Site
										{
											OFFSET -7.429878 -0.000004 0.000000
										}
									}
								}
							}
						}
					}
					JOINT Junyuan_V1:Solving:LeftShoulder
					{
						OFFSET 0.000000 -8.097195 -5.270916
						CHANNELS 6 Xposition Yposition Zposition Xrotation Yrotation Zrotation
						JOINT Junyuan_V1:Solving:LeftArm
						{
							OFFSET 20.762394 -0.000008 0.000000
							CHANNELS 6 Xposition Yposition Zposition Xrotation Yrotation Zrotation
							JOINT Junyuan_V1:Solving:LeftForeArm
							{
								OFFSET 29.048946 -0.000008 0.000000
								CHANNELS 6 Xposition Yposition Zposition Xrotation Yrotation Zrotation
								JOINT Junyuan_V1:Solving:LeftHand
								{
									OFFSET 22.031235 -0.000008 0.000000
									CHANNELS 6 Xposition Yposition Zposition Xrotation Yrotation Zrotation
									JOINT Junyuan_V1:Solving:LeftHandThumb1
									{
										OFFSET 3.579254 2.890213 -2.661497
										CHANNELS 6 Xposition Yposition Zposition Xrotation Yrotation Zrotation
										End Site
										{
											OFFSET 5.229485 0.000000 -5.277840
										}
									}
									JOINT Junyuan_V1:Solving:LeftHandMiddle1
									{
										OFFSET 9.544678 -0.000004 0.061184
										CHANNELS 6 Xposition Yposition Zposition Xrotation Yrotation Zrotation
										End Site
										{
											OFFSET 7.429878 -0.000004 0.000000
										}
									}
								}
							}
						}
					}
				}
			}
		}
	}
	JOINT Junyuan_V1:Solving:RightUpLeg
	{
		OFFSET -10.825166 0.000000 0.000000
		CHANNELS 6 Xposition Yposition Zposition Xrotation Yrotation Zrotation
		JOINT Junyuan_V1:Solving:RightLeg
		{
			OFFSET 0.000000 43.678444 -0.000006
			CHANNELS 6 Xposition Yposition Zposition Xrotation Yrotation Zrotation
			JOINT Junyuan_V1:Solving:RightFoot
			{
				OFFSET 0.000000 36.488441 -0.000006
				CHANNELS 6 Xposition Yposition Zposition Xrotation Yrotation Zrotation
				JOINT Junyuan_V1:Solving:RightForeFoot
				{
					OFFSET 0.000000 3.967834 -0.000000
					CHANNELS 6 Xposition Yposition Zposition Xrotation Yrotation Zrotation
					JOINT Junyuan_V1:Solving:RightToeBase
					{
						OFFSET 0.000000 0.000000 -15.539299
						CHANNELS 6 Xposition Yposition Zposition Xrotation Yrotation Zrotation
						JOINT Junyuan_V1:Solving:RightToeBaseEnd
						{
							OFFSET 0.000000 0.000000 -3.486985
							CHANNELS 6 Xposition Yposition Zposition Xrotation Yrotation Zrotation
							End Site
							{
								OFFSET 0.000000 -3.486992 0.000000
							}
						}
					}
				}
			}
		}
	}
	JOINT Junyuan_V1:Solving:LeftUpLeg
	{
		OFFSET 10.825166 0.000000 0.000000
		CHANNELS 6 Xposition Yposition Zposition Xrotation Yrotation Zrotation
		JOINT Junyuan_V1:Solving:LeftLeg
		{
			OFFSET 0.000000 43.678444 -0.000006
			CHANNELS 6 Xposition Yposition Zposition Xrotation Yrotation Zrotation
			JOINT Junyuan_V1:Solving:LeftFoot
			{
				OFFSET 0.000000 36.488441 -0.000006
				CHANNELS 6 Xposition Yposition Zposition Xrotation Yrotation Zrotation
				JOINT Junyuan_V1:Solving:LeftForeFoot
				{
					OFFSET 0.000000 3.967834 -0.000000
					CHANNELS 6 Xposition Yposition Zposition Xrotation Yrotation Zrotation
					JOINT Junyuan_V1:Solving:LeftToeBase
					{
						OFFSET 0.000000 0.000000 -15.539299
						CHANNELS 6 Xposition Yposition Zposition Xrotation Yrotation Zrotation
						JOINT Junyuan_V1:Solving:LeftToeBaseEnd
						{
							OFFSET 0.000000 0.000000 -3.974441
							CHANNELS 6 Xposition Yposition Zposition Xrotation Yrotation Zrotation
							End Site
							{
								OFFSET 0.000000 -3.974442 0.000000
							}
						}
					}
				}
			}
		}
	}
}
MOTION
Frames: 6
Frame Time: 0.041667
3.002854 5.863263 -67.302597 33.795230 -173.632452 -0.146100 -0.000000 -11.180217 2.228565 16.858111 0.557188 -1.165490 0.000000 -8.682991 1.531046 13.043754 -0.085781 -0.254085 -0.000001 -8.783390 0.768459 10.346552 -3.463450 2.192832 0.000001 -8.816943 -0.000007 -5.900942 0.152435 -1.482792 0.000001 -11.336073 -1.133602 -32.848681 -8.630256 5.383103 -0.000000 -7.643244 -0.668686 -5.396355 1.273821 1.324889 0.000000 -7.555881 -1.332306 0.022867 0.088896 0.235743 0.000000 -9.728088 0.000007 -0.000005 -0.000000 0.000000 0.000003 -8.097195 -5.270920 0.000009 6.432647 27.492794 -20.762384 -0.000006 -0.000005 -84.030902 -21.182051 -89.896013 -29.048937 -0.000006 -0.000002 -43.619429 -4.843777 -4.600376 -22.031250 -0.000004 -0.000008 3.587728 -11.472797 17.496310 -3.579262 2.890213 -2.661505 0.000004 0.000002 0.000010 -9.544689 0.000003 0.061185 0.000001 0.000002 0.000005 0.000001 -8.097198 -5.270920 0.000002 -11.043260 -17.904134 20.762392 -0.000010 -0.000006 -83.161603 30.346718 86.935891 29.048943 -0.000010 -0.000002 -61.448186 5.498816 9.987813 22.031235 -0.000015 -0.000005 0.586424 5.288637 -6.336453 3.579256 2.890223 -2.661494 0.000004 -0.000002 -0.000008 9.544677 -0.000002 0.061186 0.000001 -0.000004 -0.000001 -10.825166 -0.000015 0.000002 -111.347868 20.124816 14.577229 -0.000002 43.678432 -0.000000 77.419675 0.000006 0.000000 -0.000006 36.488422 -0.000008 -21.849540 15.551053 -4.761694 0.000000 3.967827 -0.000000 -0.000000 0.000001 0.000001 0.000005 -0.000012 -15.539295 8.471270 0.000001 0.000001 0.000006 -0.000008 -3.486984 -0.000001 -0.000003 -0.000000 10.825166 -0.000002 -0.000001 -116.427760 -12.648237 -35.112630 0.000000 43.678440 0.000004 78.214415 0.000002 0.000004 -0.000005 36.488426 -0.000006 -15.009967 1.836789 4.706356 -0.000000 3.967827 -0.000001 0.000001 0.000002 -0.000000 -0.000001 -0.000002 -15.539297 1.864262 -0.000001 -0.000000 -0.000004 -0.000008 -3.974442 0.000001 0.000005 -0.000001 
2.974262 6.111660 -67.023521 32.446394 -173.753496 -0.101685 -0.000002 -11.180213 2.228556 16.476728 0.532020 -1.149035 -0.000000 -8.682999 1.531028 12.332862 -0.082051 -0.232751 0.000001 -8.783392 0.768448 9.509616 -3.640086 1.792150 -0.000000 -8.816942 0.000018 -5.389023 0.067562 -1.508178 0.000002 -11.336092 -1.133620 -32.688339 -8.638698 5.615656 -0.000001 -7.643239 -0.668685 -5.348712 1.357925 1.340366 -0.000000 -7.555871 -1.332318 0.039751 0.090167 0.252856 -0.000001 -9.728065 0.000000 -0.000005 -0.000000 -0.000001 0.000003 -8.097198 -5.270915 0.000011 6.513529 27.763244 -20.762392 -0.000009 0.000000 -84.151721 -21.423419 -90.161823 -29.048948 -0.000006 -0.000005 -44.298274 -4.679682 -4.551749 -22.031239 -0.000017 0.000001 3.536734 -11.539480 17.169320 -3.579267 2.890205 -2.661499 0.000004 0.000007 0.000004 -9.544687 -0.000006 0.061175 0.000003 0.000001 -0.000003 0.000002 -8.097210 -5.270914 0.000002 -10.988414 -17.855346 20.762388 -0.000009 0.000003 -83.308500 30.565872 87.428983 29.048943 -0.000015 -0.000009 -62.197806 5.404889 10.128289 22.031235 -0.000020 0.000000 0.586541 5.440147 -6.163095 3.579251 2.890201 -2.661512 0.000002 0.000003 -0.000004 9.544679 -0.000008 0.061175 0.000002 0.000001 0.000002 -10.825166 -0.000005 -0.000023 -113.150321 19.915681 14.619774 -0.000003 43.678436 0.000007 77.860297 0.000003 0.000003 -0.000001 36.488430 -0.000005 -21.828171 15.927791 -4.695647 0.000003 3.967827 -0.000004 0.000000 -0.000004 -0.000000 0.000001 0.000004 -15.539309 8.382179 -0.000004 -0.000001 0.000006 -0.000008 -3.486986 -0.000001 0.000001 -0.000000 10.825164 -0.000002 -0.000018 -118.138504 -12.238787 -34.799360 -0.000001 43.678444 0.000005 78.667947 0.000004 0.000005 -0.000001 36.488419 -0.000006 -14.903819 1.645668 4.541802 -0.000000 3.967819 -0.000004 0.000000 0.000002 0.000000 0.000000 0.000001 -15.539297 1.794614 0.000003 -0.000000 0.000001 -0.000007 -3.974439 0.000001 0.000008 -0.000000 
2.973888 6.310459 -66.782867 31.349837 -173.861154 0.098982 0.000000 -11.180201 2.228562 16.269915 0.484883 -1.170971 0.000001 -8.682990 1.531053 11.783603 -0.064008 -0.288480 0.000000 -8.783398 0.768440 8.816123 -3.821736 1.322572 0.000001 -8.816956 0.000006 -4.991707 -0.026135 -1.435627 0.000000 -11.336085 -1.133592 -32.717214 -8.665031 5.774960 0.000000 -7.643259 -0.668690 -5.243979 1.430925 1.398676 -0.000000 -7.555880 -1.332308 0.072405 0.092316 0.271405 -0.000001 -9.728088 0.000008 -0.000003 0.000000 -0.000001 -0.000001 -8.097195 -5.270892 0.000010 6.676305 27.661484 -20.762379 -0.000010 -0.000013 -84.732595 -22.236174 -90.467638 -29.048950 0.000000 -0.000008 -45.354655 -4.238157 -4.279052 -22.031237 -0.000014 -0.000001 3.432119 -11.622941 16.577211 -3.579256 2.890219 -2.661495 0.000005 -0.000002 0.000007 -9.544686 -0.000006 0.061187 0.000003 0.000002 -0.000001 0.000001 -8.097198 -5.270891 0.000001 -11.044857 -17.910815 20.762394 -0.000010 -0.000002 -83.900842 29.221820 88.275093 29.048943 -0.000013 -0.000005 -61.464661 5.358797 9.745702 22.031227 -0.000014 0.000003 0.545975 5.382392 -5.800752 3.579260 2.890218 -2.661498 0.000002 -0.000005 -0.000003 9.544694 -0.000005 0.061186 0.000001 -0.000001 0.000001 -10.825166 0.000005 -0.000004 -114.637772 19.959546 14.769475 0.000003 43.678448 0.000007 78.224982 0.000004 0.000003 -0.000004 36.488430 -0.000005 -21.849804 16.162454 -4.544386 0.000001 3.967827 -0.000001 0.000000 -0.000003 -0.000000 -0.000004 -0.000008 -15.539291 8.273188 -0.000000 0.000001 0.000005 -0.000007 -3.486980 0.000002 -0.000002 -0.000000 10.825166 0.000001 0.000003 -119.544225 -11.749736 -34.455514 0.000002 43.678432 0.000004 79.051209 0.000002 0.000001 -0.000007 36.488422 -0.000004 -14.819270 1.476706 4.417747 -0.000002 3.967827 -0.000000 -0.000001 0.000003 -0.000002 -0.000006 -0.000014 -15.539299 1.777956 0.000003 -0.000001 -0.000006 -0.000000 -3.974436 -0.000000 0.000005 -0.000000 
3.008840 6.453888 -66.562744 30.511278 -173.855485 0.384273 0.000000 -11.180202 2.228569 15.929203 0.444884 -1.245843 -0.000001 -8.682993 1.531074 11.312900 -0.034034 -0.412329 -0.000000 -8.783391 0.768457 8.722680 -4.001939 0.996829 -0.000000 -8.816947 -0.000009 -4.610943 -0.112788 -1.229398 -0.000002 -11.336069 -1.133626 -32.713379 -8.703951 5.847815 0.000001 -7.643242 -0.668697 -5.396936 1.510211 1.425925 -0.000000 -7.555858 -1.332306 0.046552 0.097510 0.272931 0.000000 -9.728081 0.000022 -0.000005 0.000000 -0.000000 0.000000 -8.097191 -5.270925 0.000009 6.578291 28.085087 -20.762396 -0.000011 0.000008 -84.865353 -21.775097 -90.524124 -29.048944 -0.000006 -0.000004 -45.748569 -4.296861 -4.397822 -22.031237 -0.000019 -0.000006 3.420194 -11.713464 16.403497 -3.579274 2.890204 -2.661505 0.000009 -0.000002 0.000003 -9.544692 -0.000022 0.061181 0.000003 0.000004 0.000001 0.000001 -8.097195 -5.270925 -0.000000 -11.060953 -18.112231 20.762403 0.000002 0.000004 -84.433965 28.037778 88.738979 29.048941 -0.000012 0.000001 -60.810930 5.422847 9.601959 22.031233 -0.000017 0.000005 0.509581 5.195076 -5.609981 3.579260 2.890208 -2.661505 0.000000 0.000000 -0.000002 9.544686 -0.000009 0.061181 0.000002 0.000001 0.000002 -10.825163 0.000007 -0.000002 -115.742173 20.107478 14.793138 0.000012 43.678448 0.000011 78.524335 -0.000001 0.000006 -0.000004 36.488426 -0.000007 -21.929221 16.494280 -4.396440 0.000004 3.967834 -0.000003 -0.000000 -0.000002 0.000001 -0.000001 -0.000008 -15.539299 8.267701 -0.000003 0.000001 -0.000001 -0.000023 -3.486988 0.000000 -0.000000 0.000001 10.825166 0.000003 -0.000000 -120.736147 -11.228767 -34.298379 -0.000006 43.678440 -0.000004 79.453466 0.000001 0.000000 -0.000006 36.488426 -0.000008 -14.758541 1.449019 4.275695 -0.000002 3.967834 -0.000003 0.000001 -0.000002 -0.000001 0.000002 -0.000009 -15.539299 1.736603 -0.000006 -0.000000 0.000004 0.000000 -3.974436 0.000001 -0.000000 0.000001 
3.043333 6.562592 -66.340416 29.812154 -173.765586 0.607873 0.000000 -11.180204 2.228567 15.730018 0.442951 -1.304003 -0.000002 -8.682992 1.531057 11.011411 -0.020817 -0.489818 -0.000000 -8.783392 0.768462 8.564343 -4.211215 0.821432 0.000001 -8.816943 0.000001 -4.384841 -0.179779 -1.088998 -0.000002 -11.336073 -1.133612 -32.747933 -8.741782 5.862708 0.000000 -7.643240 -0.668686 -5.528396 1.569440 1.467958 0.000001 -7.555878 -1.332292 0.027146 0.100982 0.281456 -0.000000 -9.728081 0.000001 -0.000002 0.000000 0.000000 -0.000001 -8.097191 -5.270922 0.000011 6.535421 28.059911 -20.762384 -0.000014 -0.000014 -85.324861 -21.974378 -90.702890 -29.048962 -0.000005 -0.000006 -46.260697 -4.124028 -4.297809 -22.031250 -0.000015 0.000000 3.358080 -11.708242 16.127270 -3.579252 2.890209 -2.661507 0.000003 -0.000005 0.000002 -9.544686 -0.000003 0.061181 0.000002 0.000000 -0.000001 0.000001 -8.097202 -5.270922 0.000004 -11.070708 -18.120953 20.762386 -0.000007 -0.000024 -84.566915 28.514155 88.889721 29.048946 -0.000003 -0.000003 -61.618326 5.534207 10.120604 22.031246 -0.000013 -0.000003 0.544466 5.318463 -5.853674 3.579250 2.890202 -2.661503 0.000008 0.000002 -0.000005 9.544687 -0.000006 0.061176 0.000000 -0.000000 0.000002 -10.825168 -0.000001 0.000002 -116.653634 20.194079 14.694689 -0.000003 43.678444 0.000007 78.840921 0.000006 0.000005 -0.000002 36.488426 -0.000010 -22.015764 16.767566 -4.249091 0.000002 3.967827 -0.000002 -0.000000 -0.000004 0.000001 -0.000003 -0.000003 -15.539299 8.506829 0.000002 -0.000002 0.000008 -0.000008 -3.486987 -0.000001 -0.000008 0.000003 10.825167 0.000009 -0.000008 -121.777355 -10.729342 -34.256472 -0.000001 43.678432 0.000012 79.889881 0.000002 0.000005 -0.000003 36.488434 -0.000007 -14.778511 1.429608 4.192368 0.000003 3.967827 -0.000004 -0.000000 0.000003 -0.000000 -0.000000 -0.000007 -15.539302 1.726842 -0.000002 0.000001 -0.000001 -0.000007 -3.974434 0.000001 0.000007 0.000001 
3.044281 6.632649 -66.091743 29.280024 -173.666494 0.695618 0.000001 -11.180198 2.228567 15.510610 0.471625 -1.330019 0.000000 -8.683002 1.531036 10.814710 -0.028748 -0.509562 0.000001 -8.783391 0.768434 8.616551 -4.398976 0.796813 0.000000 -8.816942 -0.000005 -4.288437 -0.245433 -1.077964 0.000002 -11.336079 -1.133621 -32.739959 -8.726451 5.915276 -0.000000 -7.643258 -0.668700 -5.688845 1.582521 1.557198 0.000000 -7.555891 -1.332317 0.003353 0.104427 0.288781 0.000001 -9.728096 0.000012 -0.000003 0.000000 0.000000 0.000002 -8.097202 -5.270928 0.000010 6.480163 28.467561 -20.762388 -0.000001 -0.000013 -85.392261 -21.499721 -90.807836 -29.048954 -0.000016 -0.000005 -46.564606 -4.266017 -4.492201 -22.031227 -0.000016 -0.000007 3.345088 -11.743157 16.023282 -3.579247 2.890207 -2.661485 0.000000 -0.000002 -0.000001 -9.544687 -0.000008 0.061185 0.000001 0.000000 -0.000002 0.000001 -8.097206 -5.270929 0.000002 -11.113934 -18.279377 20.762386 -0.000013 -0.000002 -85.122592 26.852163 89.454250 29.048946 -0.000020 -0.000001 -60.382185 5.623036 9.779198 22.031239 -0.000004 -0.000013 0.507619 5.168046 -5.617494 3.579255 2.890210 -2.661491 0.000005 -0.000005 -0.000009 9.544683 -0.000007 0.061186 0.000001 -0.000002 -0.000004 -10.825165 0.000005 0.000016 -117.403398 20.139755 14.573262 0.000006 43.678440 -0.000001 79.217272 0.000004 0.000005 -0.000004 36.488426 -0.000004 -22.217256 17.090202 -4.260133 0.000002 3.967819 -0.000008 -0.000001 -0.000001 0.000000 -0.000002 0.000001 -15.539302 8.540779 0.000001 0.000001 0.000007 -0.000008 -3.486989 0.000001 -0.000002 -0.000000 10.825164 0.000004 0.000013 -122.630760 -10.358425 -34.287946 0.000003 43.678436 0.000001 80.398246 0.000005 0.000007 -0.000002 36.488445 -0.000009 -14.930993 1.398594 4.151744 0.000001 3.967834 0.000000 0.000001 -0.000002 0.000001 0.000001 -0.000003 -15.539301 1.750470 0.000002 -0.000001 -0.000000 -0.000008 -3.974438 0.000001 0.000002 -0.000001 
